<svg width="433" height="598" viewBox="0 0 433 598" fill="none" xmlns="http://www.w3.org/2000/svg">
<path fill-rule="evenodd" clip-rule="evenodd" d="M274.499 567C283.06 567 289.999 573.94 289.999 582.5C289.999 591.061 283.059 598 274.499 598H157.499C148.939 598 141.999 591.06 141.999 582.5C141.999 573.94 148.939 567.001 157.499 567H274.499ZM307.499 508C316.612 508 323.999 515.388 323.999 524.5C323.999 533.613 316.612 541 307.499 541H120.499C111.387 541 103.999 533.613 103.999 524.5C103.999 515.388 111.387 508.001 120.499 508H307.499ZM213.143 0.0188919C242.063 -0.363621 270.767 5.06608 297.549 15.9857C324.332 26.9055 348.649 43.0932 369.058 63.5882C389.466 84.0832 405.55 108.469 416.357 135.297C426.777 161.168 432.084 188.802 431.997 216.673C432.148 216.685 432.299 216.698 432.45 216.71C431.798 224.761 431.034 232.859 430.058 241.004C426.623 277.945 413.05 321.085 385.195 349.483L385.771 348.797C356.079 383.707 339.778 420.709 332.766 465.633L330.556 478.031L318.505 478.001C310.744 478.02 302.981 478.04 295.22 478.059C249.849 478.17 204.477 478.28 159.106 478.391C144.249 478.427 129.392 478.464 114.536 478.5L101.943 478.531L99.7326 466.133C92.7207 421.209 76.4192 384.207 46.7277 349.297L47.3029 349.983C19.4482 321.585 5.87539 278.445 2.44058 241.504C1.7972 236.135 1.24692 230.785 0.758939 225.456L0.208157 225.481C-1.06128 196.586 3.48534 167.729 13.5783 140.624C23.6713 113.52 39.1059 88.7172 58.965 67.6898C78.8241 46.6625 102.705 29.8375 129.189 18.2132C155.673 6.58901 184.222 0.401519 213.143 0.0188919ZM216.499 33.0003C114.051 33.0009 30.9992 115.828 30.9992 218C30.9992 220.049 31.0325 222.091 31.0988 224.123L30.7648 224.138C31.1983 228.763 31.6795 233.365 32.2267 237.931C36.122 273.845 45.704 304.786 69.6955 330.018L70.2707 330.703C97.8159 362.091 118.521 405.489 126.986 447.533C130.441 447.541 133.897 447.55 137.352 447.559C161.901 447.619 186.45 447.678 210.999 447.738V235.09C210.261 234.913 209.524 234.695 208.793 234.429C198.414 230.651 193.062 219.174 196.84 208.794C200.618 198.415 212.094 193.064 222.474 196.841C232.853 200.619 238.206 212.096 234.428 222.476C232.007 229.126 226.427 233.711 219.999 235.155V447.76C237.821 447.804 255.644 447.847 273.466 447.891C284.085 447.917 294.705 447.943 305.323 447.969C313.668 405.634 334.478 361.824 362.228 330.203L362.803 329.518C386.794 304.286 396.376 273.345 400.272 237.431C400.992 231.423 401.597 225.351 402.13 219.248L401.995 219.246C401.998 218.832 401.999 218.416 401.999 218C401.999 115.828 318.948 33.0003 216.499 33.0003ZM165.334 277.99C172.677 261.614 185.331 268.86 185.403 268.902L186.137 269.326C186.219 269.373 198.073 276.288 187.569 290.827C177.041 305.397 138.5 350.196 138.403 350.308L138.432 350.229C139.257 347.874 158.132 294.052 165.334 277.99ZM249.021 267.796C249.076 267.764 261.01 260.922 268.357 277.307C275.712 293.71 295.238 349.486 295.287 349.625L295.233 349.562C293.606 347.67 256.431 304.413 246.122 290.144C235.601 275.582 248.24 268.246 248.287 268.219L249.021 267.796ZM136.014 230.25C152.178 222.42 157.208 236.133 157.229 236.19L157.519 236.985C157.519 236.985 162.246 249.976 144.794 254.376C127.342 258.777 68.8976 268.339 68.8976 268.339L68.9709 268.296C71.123 267.019 120.173 237.925 136.014 230.25ZM275.734 234.426C275.734 234.426 280.462 221.436 296.659 229.283C312.857 237.13 363.776 267.371 363.776 267.371L363.692 267.358C361.225 266.954 304.948 257.711 287.879 253.408C270.459 249.015 275.426 235.271 275.444 235.221L275.734 234.426ZM363.892 160.996C361.746 162.27 312.691 191.367 296.849 199.042C280.695 206.868 275.66 193.179 275.633 193.104L275.344 192.308C275.321 192.246 270.658 179.307 288.068 174.917C305.499 170.522 363.824 160.976 363.964 160.953L363.892 160.996ZM69.1007 159.667C71.5664 160.071 127.844 169.314 144.913 173.618C162.334 178.01 157.366 191.754 157.348 191.804L157.059 192.599C157.059 192.599 152.331 205.59 136.133 197.743C119.935 189.895 69.0168 159.654 69.0168 159.654L69.1007 159.667ZM295.383 78.4603C294.558 80.8152 275.683 134.637 268.481 150.7C261.133 167.085 248.47 159.821 248.411 159.787L247.678 159.365C247.634 159.339 235.725 152.425 246.246 137.863C256.777 123.288 295.336 78.4685 295.411 78.3812L295.383 78.4603ZM138.35 77.7533C139.977 79.6452 177.151 122.902 187.46 137.171C197.981 151.734 185.341 159.069 185.295 159.096L184.562 159.519C184.487 159.562 172.567 166.38 165.226 150.008C157.862 133.585 138.295 77.6888 138.295 77.6888L138.35 77.7533Z" fill="#FFFF55"/>
</svg>
